<?xml version="1.0" standalone="no"?>
<!DOCTYPE svg PUBLIC "-//W3C//DTD SVG 20010904//EN"
 "http://www.w3.org/TR/2001/REC-SVG-20010904/DTD/svg10.dtd">
<svg version="1.0" xmlns="http://www.w3.org/2000/svg"
 width="1182.000000pt" height="1182.000000pt" viewBox="0 0 1182.000000 1182.000000"
 preserveAspectRatio="xMidYMid meet">
<metadata>
Created by potrace 1.14, written by Peter Selinger 2001-2017
</metadata>
<g transform="translate(0.000000,1182.000000) scale(0.100000,-0.100000)"
fill="#000000" stroke="none">
<path d="M5727 11814 c-1 -1 -67 -5 -147 -8 -79 -4 -154 -9 -165 -11 -11 -3
-51 -7 -90 -10 -77 -5 -112 -9 -260 -31 -55 -8 -118 -17 -140 -20 -33 -5 -225
-43 -300 -60 -11 -2 -31 -6 -45 -9 -255 -48 -820 -239 -1095 -370 -27 -13 -90
-42 -138 -64 -299 -137 -767 -426 -1032 -636 -306 -242 -542 -458 -764 -700
-136 -148 -383 -457 -484 -605 -47 -70 -183 -276 -192 -292 -5 -9 -44 -77 -86
-150 -151 -263 -239 -442 -354 -723 -87 -213 -191 -526 -241 -725 -17 -70 -44
-181 -48 -201 -2 -13 -14 -67 -25 -119 -39 -185 -67 -372 -86 -575 -4 -33 -8
-73 -10 -90 -23 -180 -24 -802 0 -1000 2 -16 6 -62 9 -100 4 -39 8 -81 10 -95
3 -14 7 -51 11 -84 4 -32 8 -68 10 -80 2 -11 6 -39 10 -61 60 -411 191 -883
365 -1315 99 -246 316 -677 434 -860 233 -362 440 -638 656 -875 69 -75 339
-346 402 -403 146 -132 295 -254 443 -364 49 -37 95 -71 101 -76 58 -50 539
-352 560 -352 4 0 15 -6 23 -14 17 -14 284 -150 405 -205 427 -196 965 -364
1396 -436 19 -3 42 -8 50 -10 8 -2 35 -6 60 -9 25 -3 56 -8 69 -11 13 -2 49
-7 80 -10 31 -4 63 -8 71 -10 8 -2 51 -7 95 -11 44 -3 89 -8 99 -10 128 -24
905 -24 1056 0 14 3 57 7 96 10 39 4 80 8 90 10 11 2 44 7 75 10 31 4 65 8 75
10 11 2 40 6 65 10 110 16 418 79 519 107 41 11 84 22 95 24 11 3 81 23 155
45 686 205 1325 533 1897 973 406 311 821 729 1111 1117 39 52 75 100 80 105
61 73 278 415 386 609 246 442 464 1002 572 1471 9 39 17 77 19 85 21 91 69
347 79 425 3 22 10 72 15 110 6 39 13 104 16 145 4 41 9 86 11 100 24 151 24
802 -1 1045 -2 22 -7 69 -10 105 -3 36 -8 79 -10 95 -3 17 -7 48 -10 70 -5 38
-20 137 -31 200 -16 99 -39 213 -61 305 -13 58 -26 113 -28 122 -10 49 -68
257 -92 330 -14 46 -28 88 -29 93 -5 24 -88 254 -105 292 -11 23 -19 44 -19
48 0 18 -132 310 -212 470 -55 108 -78 151 -141 265 -154 277 -414 645 -653
925 -115 135 -416 445 -519 535 -146 127 -193 167 -300 252 -489 387 -1018
684 -1613 907 -234 89 -508 168 -787 230 -94 21 -283 57 -350 66 -22 3 -53 7
-70 10 -68 11 -102 15 -145 19 -25 3 -70 7 -100 11 -122 12 -159 15 -260 21
-96 6 -519 12 -523 8z"/>
</g>
</svg>
