<?xml version="1.0" encoding="UTF-8" standalone="no"?>
<!-- Created with Inkscape (http://www.inkscape.org/) -->

<svg
   version="1.1"
   id="svg2"
   xml:space="preserve"
   width="1122.52"
   height="377.94666"
   viewBox="0 0 1122.52 377.94666"
   sodipodi:docname="TriviCare_byn Positivo.eps"
   xmlns:inkscape="http://www.inkscape.org/namespaces/inkscape"
   xmlns:sodipodi="http://sodipodi.sourceforge.net/DTD/sodipodi-0.dtd"
   xmlns="http://www.w3.org/2000/svg"
   xmlns:svg="http://www.w3.org/2000/svg"><defs
     id="defs6" /><sodipodi:namedview
     id="namedview4"
     pagecolor="#ffffff"
     bordercolor="#666666"
     borderopacity="1.0"
     inkscape:pageshadow="2"
     inkscape:pageopacity="0.0"
     inkscape:pagecheckerboard="0" /><g
     id="g8"
     inkscape:groupmode="layer"
     inkscape:label="ink_ext_XXXXXX"
     transform="matrix(1.3333333,0,0,-1.3333333,0,377.94667)"><g
       id="g10"
       transform="scale(0.1)"><path
         d="m 1740.66,2411.66 c 0,0 24.76,-158.64 27.91,-187.09 -71.42,83.57 -214.69,159.54 -471.68,159.54 h -42.1 v -893.83 c 0,-256.98 30.98,-408.74 79.78,-443.79 -18.53,0 -202.07,0 -218.69,0 -16.59,0 -61.23,0 -79.76,0 48.79,35.05 79.76,186.81 79.76,443.79 v 893.83 h -42.08 c -256.984,0 -400.277,-75.97 -471.691,-159.54 3.161,28.45 27.907,187.09 27.907,187.09 H 1740.66"
         style="fill:#040606;fill-opacity:1;fill-rule:nonzero;stroke:none"
         id="path12" /><path
         d="m 2525.6,1046.49 c -18.51,0 -201.96,0 -218.61,0 v 0.67 l -0.22,-0.67 c -16.6,0 -61.25,0 -79.78,0 122.87,113.93 95.96,575.97 0,652.92 18.53,0 63.18,0 79.78,0 l 0.22,-0.67 v 0.67 h 138.9 v -228.18 c 1.49,-245.43 32.12,-390.56 79.71,-424.74 z m -137.04,832.91 c -239.5,218.33 -555.45,-23.63 -555.45,-284.65 v -123.49 c 1.49,-245.44 32.12,-390.59 79.7,-424.77 -18.5,0 -201.96,0 -218.61,0 v 0.67 l -0.22,-0.67 c -16.6,0 -61.25,0 -79.77,0 48.8,35.05 79.77,186.81 79.77,443.77 l 0.22,-1.25 v 122.75 c 0,256.98 -31.19,408.73 -79.99,443.79 18.52,0 63.17,0 79.77,0 l 0.22,-0.69 v 0.69 h 138.91 v -322.94 c 71.3,209.19 304.42,362.31 618.15,362.31 l -62.7,-215.52"
         style="fill:#040606;fill-opacity:1;fill-rule:nonzero;stroke:none"
         id="path14" /><path
         d="m 3880.6,1046.49 c -18.49,0 -201.96,0 -218.61,0 v 0.69 l -0.21,-0.69 c -16.59,0 -61.24,0 -79.77,0 48.8,35.05 79.77,186.81 79.77,443.79 l 0.21,-1.27 v 124.04 l -0.21,-1.27 c 0,256.95 -30.97,408.71 -79.77,443.75 18.51,0 63.18,0 79.77,0 l 0.21,-0.66 v 0.66 h 138.9 v -584.3 c 1.5,-245.43 32.14,-390.56 79.71,-424.74 z m -497.13,921.41 -339.97,-890.39 -11.76,-31.02 h -27.68 l -214.3,565.37 c -89.73,236.7 -160.28,379.84 -247.94,443.67 18.53,0 202.08,0 218.69,0 16.59,0 61.24,0 79.77,0 -48.8,-35.04 13.41,-245.85 88.42,-443.75 l 144.87,-382.22 0.21,-0.5 296.55,776.94 c 154.02,403.32 251.06,445.05 455.71,445.05 l -74.98,-257.71 c -155.18,155.18 -237.93,119.55 -367.59,-225.44"
         style="fill:#040606;fill-opacity:1;fill-rule:nonzero;stroke:none"
         id="path16" /><path
         d="m 4566.75,1007.12 c -334.82,0 -606.23,323.23 -606.23,721.96 0,398.73 271.41,721.97 606.23,721.97 189.44,0 199.42,-39.39 362.45,-39.39 V 2136.8 c -79.53,171.17 -208.85,286.7 -362.45,286.7 -258.1,0 -447.64,-326.11 -447.64,-694.42 0,-368.3 189.54,-694.43 447.64,-694.43 187.05,0 345.43,100.58 448.96,253.09 l 22.06,-13.18 C 4926.63,1111.4 4756.91,1007.12 4566.75,1007.12"
         style="fill:#040606;fill-opacity:1;fill-rule:nonzero;stroke:none"
         id="path18" /><path
         d="m 5829.75,1147.39 c -18.7,40.96 -23.78,90.69 -23.78,141.81 0,51.49 0,509.59 0,509.59 -240.95,-92.14 -532.57,-253.99 -532.57,-520.53 0,-141.55 94.19,-238.99 219.04,-238.99 96.17,0 214.41,35.73 337.31,108.12 z m 1073.26,926.72 -54.47,-77.28 c -35.58,21.32 -76.8,31.31 -118.01,31.31 -209.34,0 -326.71,-172.35 -326.71,-433.38 v -123.5 c 1.48,-245.44 32.13,-390.58 79.71,-424.77 -18.5,0 -201.98,0 -218.61,0 v 0.69 l -0.22,-0.69 c -16.6,0 -61.25,0 -79.78,0 48.8,35.05 79.78,186.81 79.78,443.79 l 0.22,-1.27 v 32.37 c -92.2,-133.36 -197.22,-242.3 -306.95,-325.04 10.77,-74.78 30.39,-122.64 66.56,-149.85 -94.16,0 -148.82,29.41 -179.95,74.54 -129.79,-74.96 -262.13,-113.91 -384.29,-113.91 -215.31,0 -359.23,121.61 -359.23,271.14 0,317.22 416.4,466.5 704.91,548.96 v 2.3 c 0,171.95 -78.62,237.85 -189.8,237.85 -0.19,0 -0.39,-0.01 -0.57,-0.01 v 0.01 c -100.7,0 -190.95,-49.66 -263.57,-132.05 l -98.64,119.78 -0.27,0.43 c 163.03,0 221.39,39.4 362.48,39.4 259.84,0 329.29,-123.37 329.29,-265.41 v -365.86 c 0.79,-94.01 2.72,-170.34 8.79,-231.56 108.48,84.76 216.09,197.75 311.24,339.67 v 40.01 c 0,256.95 -31.2,408.71 -80,443.77 18.53,0 63.18,0 79.78,0 l 0.22,-0.68 v 0.68 h 138.9 v -256.58 c 52.44,174.44 176.06,295.96 358.87,295.96 54.9,0 101.27,-7.55 140.32,-20.82"
         style="fill:#040606;fill-opacity:1;fill-rule:nonzero;stroke:none"
         id="path20" /><path
         d="m 7050.3,1784.92 h 542.15 c -1.59,148.84 -84.13,282.45 -235.82,282.45 -133.72,0 -249.55,-114.83 -306.33,-282.45 z m 766.49,-485.66 c -87.11,-140.6 -260.2,-292.14 -460.16,-292.14 -286.65,0 -519.03,243.51 -519.03,543.9 0,300.37 232.35,543.89 519,543.91 h 0.03 c 235.58,0 383.36,-164.25 392.62,-337.58 h -157.4 c 0,0 0,0 0,0.03 h -550.18 c -18.36,-63.22 -28.55,-132.99 -28.55,-206.36 0,-285.19 153.78,-516.37 343.51,-516.37 180.16,0 337.15,117.01 438.14,276.01 l 22.02,-11.4"
         style="fill:#040606;fill-opacity:1;fill-rule:nonzero;stroke:none"
         id="path22" /><path
         d="m 1950.47,385.84 v 195.711 h 22.92 l 129.45,-160.762 h -12.02 v 160.762 h 27.95 V 385.84 h -22.92 L 1966.4,546.609 h 12.02 V 385.84 h -27.95"
         style="fill:#040606;fill-opacity:1;fill-rule:nonzero;stroke:none"
         id="path24" /><path
         d="m 2241.51,434.762 7.55,22.367 h 110.15 l 8.11,-22.367 z m -37.75,-48.922 88.63,195.711 h 27.68 l 88.9,-195.711 h -29.35 l -79.12,180.039 h 11.18 L 2232.56,385.84 h -28.8"
         style="fill:#040606;fill-opacity:1;fill-rule:nonzero;stroke:none"
         id="path26" /><path
         d="m 2523.04,385.84 v 171.379 h -67.09 v 24.332 h 161.88 v -24.332 h -67.11 V 385.84 h -27.68"
         style="fill:#040606;fill-opacity:1;fill-rule:nonzero;stroke:none"
         id="path28" /><path
         d="m 2781.65,383.609 c -25.72,0 -45.95,7.352 -60.66,22.082 -14.73,14.719 -22.09,36.258 -22.09,64.59 v 111.27 h 27.96 V 471.398 c 0,-21.808 4.79,-37.738 14.39,-47.808 9.6,-10.07 23.16,-15.102 40.68,-15.102 17.7,0 31.36,5.032 40.97,15.102 9.6,10.07 14.39,26 14.39,47.808 v 110.153 h 27.12 v -111.27 c 0,-28.332 -7.32,-49.871 -21.95,-64.59 -14.63,-14.73 -34.9,-22.082 -60.81,-22.082"
         style="fill:#040606;fill-opacity:1;fill-rule:nonzero;stroke:none"
         id="path30" /><path
         d="m 3108.47,385.84 -49.76,71.019 h 29.92 l 50.32,-71.019 z m -102.88,69.621 -12.58,13.68 h 60.11 c 17.89,0 31.45,3.879 40.68,11.621 9.22,7.718 13.84,18.59 13.84,32.558 0,13.981 -4.62,24.801 -13.84,32.45 -9.23,7.621 -22.79,11.449 -40.68,11.449 h -60.11 l 12.58,13.992 z m -27.96,-69.621 v 195.711 h 76.33 c 17.14,0 31.78,-2.711 43.89,-8.11 12.12,-5.41 21.43,-13.242 27.96,-23.492 6.52,-10.238 9.79,-22.461 9.79,-36.629 0,-14.16 -3.27,-26.32 -9.79,-36.48 -6.53,-10.149 -15.84,-17.93 -27.96,-23.34 -12.11,-5.41 -26.75,-8.109 -43.89,-8.109 h -60.95 l 12.58,12.859 v -72.41 h -27.96"
         style="fill:#040606;fill-opacity:1;fill-rule:nonzero;stroke:none"
         id="path32" /><path
         d="m 3244.91,434.762 7.55,22.367 h 110.15 l 8.11,-22.367 z m -37.75,-48.922 88.64,195.711 h 27.67 l 88.91,-195.711 h -29.36 l -79.12,180.039 h 11.19 L 3235.96,385.84 h -28.8"
         style="fill:#040606;fill-opacity:1;fill-rule:nonzero;stroke:none"
         id="path34" /><path
         d="m 3497.38,385.84 v 195.711 h 27.95 V 410.16 h 105.96 v -24.32 h -133.91"
         style="fill:#040606;fill-opacity:1;fill-rule:nonzero;stroke:none"
         id="path36" /><path
         d="m 4462.46,383.609 c -14.91,0 -28.66,2.473 -41.24,7.403 -12.58,4.929 -23.49,11.929 -32.7,20.976 -9.23,9.043 -16.46,19.602 -21.67,31.723 -5.22,12.109 -7.84,25.43 -7.84,39.98 0,14.539 2.62,27.868 7.84,39.981 5.21,12.117 12.49,22.687 21.8,31.726 9.32,9.063 20.28,16.032 32.85,20.981 12.58,4.93 26.33,7.402 41.24,7.402 15.09,0 29.03,-2.562 41.8,-7.691 12.76,-5.121 23.62,-12.719 32.57,-22.789 l -18.17,-17.602 c -7.47,7.832 -15.85,13.653 -25.17,17.481 -9.33,3.82 -19.29,5.73 -29.91,5.73 -11,0 -21.2,-1.879 -30.62,-5.609 -9.41,-3.731 -17.56,-8.93 -24.45,-15.641 -6.91,-6.719 -12.27,-14.691 -16.08,-23.91 -3.83,-9.219 -5.74,-19.238 -5.74,-30.059 0,-10.812 1.91,-20.82 5.74,-30.05 3.81,-9.231 9.17,-17.192 16.08,-23.911 6.89,-6.71 15.04,-11.921 24.45,-15.64 9.42,-3.738 19.62,-5.602 30.62,-5.602 10.62,0 20.58,1.903 29.91,5.731 9.32,3.82 17.7,9.742 25.17,17.75 l 18.17,-17.61 c -8.95,-10.07 -19.81,-17.718 -32.57,-22.918 -12.77,-5.23 -26.8,-7.832 -42.08,-7.832"
         style="fill:#040606;fill-opacity:1;fill-rule:nonzero;stroke:none"
         id="path38" /><path
         d="m 4716.88,408.488 c 11,0 21.12,1.864 30.34,5.602 9.23,3.719 17.23,8.988 24.04,15.781 6.81,6.801 12.12,14.77 15.94,23.899 3.82,9.128 5.73,19.109 5.73,29.921 0,10.821 -1.91,20.731 -5.73,29.77 -3.82,9.039 -9.13,17.019 -15.94,23.91 -6.81,6.891 -14.81,12.199 -24.04,15.93 -9.22,3.73 -19.34,5.609 -30.34,5.609 -10.81,0 -20.83,-1.879 -30.05,-5.609 -9.22,-3.731 -17.29,-9.039 -24.18,-15.93 -6.9,-6.891 -12.26,-14.871 -16.09,-23.91 -3.82,-9.039 -5.72,-18.949 -5.72,-29.77 0,-10.812 1.9,-20.793 5.72,-29.921 3.83,-9.129 9.19,-17.098 16.09,-23.899 6.89,-6.793 14.96,-12.062 24.18,-15.781 9.22,-3.738 19.24,-5.602 30.05,-5.602 z m 0.28,-24.879 c -14.91,0 -28.75,2.512 -41.52,7.539 -12.76,5.043 -23.81,12.071 -33.13,21.114 -9.32,9.039 -16.58,19.617 -21.81,31.738 -5.21,12.109 -7.82,25.34 -7.82,39.691 0,14.348 2.61,27.59 7.82,39.7 5.23,12.121 12.49,22.699 21.81,31.738 9.32,9.031 20.32,16.082 33,21.109 12.66,5.024 26.56,7.543 41.65,7.543 14.92,0 28.7,-2.472 41.38,-7.402 12.67,-4.949 23.67,-11.918 32.99,-20.981 9.32,-9.039 16.54,-19.66 21.67,-31.867 5.13,-12.203 7.69,-25.492 7.69,-39.84 0,-14.55 -2.56,-27.871 -7.69,-39.98 -5.13,-12.121 -12.35,-22.68 -21.67,-31.723 -9.32,-9.047 -20.32,-16.047 -32.99,-20.976 -12.68,-4.93 -26.46,-7.403 -41.38,-7.403"
         style="fill:#040606;fill-opacity:1;fill-rule:nonzero;stroke:none"
         id="path40" /><path
         d="m 4976.6,383.609 c -14.92,0 -29.18,2.282 -42.77,6.84 -13.62,4.571 -24.33,10.492 -32.16,17.77 l 10.35,21.801 c 7.44,-6.54 16.95,-11.93 28.52,-16.231 11.54,-4.277 23.57,-6.41 36.06,-6.41 11.37,0 20.6,1.301 27.68,3.902 7.08,2.61 12.3,6.188 15.65,10.77 3.36,4.558 5.04,9.73 5.04,15.508 0,6.711 -2.2,12.121 -6.57,16.211 -4.38,4.101 -10.07,7.41 -17.06,9.941 -6.98,2.5 -14.67,4.699 -23.06,6.57 -8.39,1.848 -16.82,4.059 -25.31,6.559 -8.48,2.512 -16.21,5.738 -23.19,9.648 -7.01,3.922 -12.64,9.184 -16.93,15.801 -4.29,6.621 -6.42,15.141 -6.42,25.582 0,10.059 2.65,19.328 7.96,27.809 5.32,8.48 13.51,15.289 24.6,20.41 11.09,5.129 25.21,7.691 42.36,7.691 11.37,0 22.65,-1.492 33.83,-4.461 11.19,-2.992 20.87,-7.269 29.08,-12.871 l -9.23,-22.371 c -8.38,5.594 -17.24,9.652 -26.55,12.16 -9.33,2.532 -18.36,3.774 -27.13,3.774 -11,0 -20.03,-1.391 -27.11,-4.203 -7.09,-2.77 -12.27,-6.508 -15.53,-11.168 -3.25,-4.661 -4.88,-9.879 -4.88,-15.653 0,-6.91 2.18,-12.398 6.57,-16.5 4.38,-4.097 10.06,-7.367 17.05,-9.769 6.99,-2.438 14.68,-4.629 23.07,-6.59 8.38,-1.949 16.81,-4.149 25.3,-6.578 8.48,-2.422 16.21,-5.571 23.2,-9.5 7,-3.903 12.63,-9.129 16.92,-15.641 4.28,-6.539 6.42,-14.922 6.42,-25.18 0,-9.871 -2.69,-19.058 -8.1,-27.519 -5.41,-8.492 -13.75,-15.289 -25.03,-20.43 -11.28,-5.109 -25.48,-7.672 -42.63,-7.672"
         style="fill:#040606;fill-opacity:1;fill-rule:nonzero;stroke:none"
         id="path42" /><path
         d="m 5149.1,385.84 v 195.711 h 22.92 l 87.79,-147.891 h -12.3 l 86.67,147.891 h 22.92 l 0.28,-195.711 h -26.83 l -0.29,153.488 h 6.44 l -77.17,-129.719 h -12.86 l -77.72,129.719 h 6.99 V 385.84 h -26.84"
         style="fill:#040606;fill-opacity:1;fill-rule:nonzero;stroke:none"
         id="path44" /><path
         d="m 5497.47,497.109 h 100.65 V 473.34 h -100.65 z m 2.5,-86.949 h 114.08 v -24.32 h -142.03 v 195.711 h 138.12 V 557.219 H 5499.97 V 410.16"
         style="fill:#040606;fill-opacity:1;fill-rule:nonzero;stroke:none"
         id="path46" /><path
         d="m 5754.1,385.84 v 171.379 h -67.09 v 24.332 h 161.88 v -24.332 h -67.11 V 385.84 h -27.68"
         style="fill:#040606;fill-opacity:1;fill-rule:nonzero;stroke:none"
         id="path48" /><path
         d="m 5935.27,385.84 v 195.711 h 27.95 V 385.84 h -27.95"
         style="fill:#040606;fill-opacity:1;fill-rule:nonzero;stroke:none"
         id="path50" /><path
         d="m 6165.36,383.609 c -14.91,0 -28.66,2.473 -41.24,7.403 -12.58,4.929 -23.49,11.929 -32.7,20.976 -9.23,9.043 -16.46,19.602 -21.68,31.723 -5.21,12.109 -7.83,25.43 -7.83,39.98 0,14.539 2.62,27.868 7.83,39.981 5.22,12.117 12.5,22.687 21.81,31.726 9.32,9.063 20.28,16.032 32.85,20.981 12.58,4.93 26.33,7.402 41.24,7.402 15.09,0 29.03,-2.562 41.8,-7.691 12.77,-5.121 23.62,-12.719 32.57,-22.789 l -18.17,-17.602 c -7.46,7.832 -15.85,13.653 -25.17,17.481 -9.33,3.82 -19.29,5.73 -29.91,5.73 -11,0 -21.2,-1.879 -30.62,-5.609 -9.41,-3.731 -17.57,-8.93 -24.45,-15.641 -6.9,-6.719 -12.27,-14.691 -16.08,-23.91 -3.83,-9.219 -5.74,-19.238 -5.74,-30.059 0,-10.812 1.91,-20.82 5.74,-30.05 3.81,-9.231 9.18,-17.192 16.08,-23.911 6.88,-6.71 15.04,-11.921 24.45,-15.64 9.42,-3.738 19.62,-5.602 30.62,-5.602 10.62,0 20.58,1.903 29.91,5.731 9.32,3.82 17.71,9.742 25.17,17.75 l 18.17,-17.61 c -8.95,-10.07 -19.8,-17.718 -32.57,-22.918 -12.77,-5.23 -26.8,-7.832 -42.08,-7.832"
         style="fill:#040606;fill-opacity:1;fill-rule:nonzero;stroke:none"
         id="path52" /><path
         d="m 6392.67,383.609 c -14.92,0 -29.17,2.282 -42.78,6.84 -13.6,4.571 -24.32,10.492 -32.16,17.77 l 10.36,21.801 c 7.45,-6.54 16.95,-11.93 28.51,-16.231 11.55,-4.277 23.59,-6.41 36.07,-6.41 11.36,0 20.59,1.301 27.67,3.902 7.08,2.61 12.31,6.188 15.66,10.77 3.37,4.558 5.04,9.73 5.04,15.508 0,6.711 -2.2,12.121 -6.58,16.211 -4.37,4.101 -10.07,7.41 -17.05,9.941 -6.99,2.5 -14.68,4.699 -23.06,6.57 -8.39,1.848 -16.83,4.059 -25.31,6.559 -8.48,2.512 -16.21,5.738 -23.2,9.648 -6.99,3.922 -12.64,9.184 -16.91,15.801 -4.3,6.621 -6.43,15.141 -6.43,25.582 0,10.059 2.65,19.328 7.96,27.809 5.31,8.48 13.51,15.289 24.61,20.41 11.07,5.129 25.19,7.691 42.34,7.691 11.38,0 22.66,-1.492 33.84,-4.461 11.18,-2.992 20.88,-7.269 29.07,-12.871 l -9.22,-22.371 c -8.39,5.594 -17.24,9.652 -26.56,12.16 -9.33,2.532 -18.36,3.774 -27.13,3.774 -10.99,0 -20.03,-1.391 -27.11,-4.203 -7.09,-2.77 -12.26,-6.508 -15.51,-11.168 -3.27,-4.661 -4.9,-9.879 -4.9,-15.653 0,-6.91 2.19,-12.398 6.57,-16.5 4.38,-4.097 10.07,-7.367 17.06,-9.769 6.99,-2.438 14.67,-4.629 23.06,-6.59 8.39,-1.949 16.82,-4.149 25.3,-6.578 8.48,-2.422 16.22,-5.571 23.21,-9.5 6.99,-3.903 12.62,-9.129 16.91,-15.641 4.29,-6.539 6.43,-14.922 6.43,-25.18 0,-9.871 -2.7,-19.058 -8.11,-27.519 -5.41,-8.492 -13.74,-15.289 -25.02,-20.43 -11.28,-5.109 -25.49,-7.672 -42.63,-7.672"
         style="fill:#040606;fill-opacity:1;fill-rule:nonzero;stroke:none"
         id="path54" /><path
         d="m 4223.64,459.801 h -471.79 v 26.211 h 471.79 v -26.211"
         style="fill:#040606;fill-opacity:1;fill-rule:nonzero;stroke:none"
         id="path56" /></g></g></svg>
