<?xml version="1.0" encoding="UTF-8" standalone="no"?>
<!-- Created with Inkscape (http://www.inkscape.org/) -->

<svg
   version="1.1"
   id="svg2"
   xml:space="preserve"
   width="377.94666"
   height="377.94666"
   viewBox="0 0 377.94666 377.94666"
   sodipodi:docname="TriviCare_byn Round Positivo.eps"
   xmlns:inkscape="http://www.inkscape.org/namespaces/inkscape"
   xmlns:sodipodi="http://sodipodi.sourceforge.net/DTD/sodipodi-0.dtd"
   xmlns="http://www.w3.org/2000/svg"
   xmlns:svg="http://www.w3.org/2000/svg"><defs
     id="defs6" /><sodipodi:namedview
     id="namedview4"
     pagecolor="#ffffff"
     bordercolor="#666666"
     borderopacity="1.0"
     inkscape:pageshadow="2"
     inkscape:pageopacity="0.0"
     inkscape:pagecheckerboard="0" /><g
     id="g8"
     inkscape:groupmode="layer"
     inkscape:label="ink_ext_XXXXXX"
     transform="matrix(1.3333333,0,0,-1.3333333,0,377.94667)"><g
       id="g10"
       transform="scale(0.1)"><path
         d="M 2834.65,1417.33 C 2834.65,634.559 2200.09,0 1417.33,0 634.563,0 0,634.559 0,1417.33 c 0,782.76 634.563,1417.32 1417.33,1417.32 782.76,0 1417.32,-634.56 1417.32,-1417.32"
         style="fill:#ffffff;fill-opacity:1;fill-rule:nonzero;stroke:none"
         id="path12" /><path
         d="m 533.398,1928.78 c -2.781,-4.82 -6.835,-7.98 -12.168,-9.48 -5.332,-1.51 -10.574,-0.78 -15.73,2.19 -5.156,2.98 -8.391,7.12 -9.668,12.44 -1.289,5.32 -0.547,10.39 2.227,15.21 2.871,4.98 6.855,8.12 11.961,9.42 5.097,1.3 10.226,0.47 15.382,-2.51 5.157,-2.96 8.496,-7.01 10.02,-12.12 1.523,-5.12 0.848,-10.16 -2.024,-15.15"
         style="fill:#040606;fill-opacity:1;fill-rule:nonzero;stroke:none"
         id="path14" /><path
         d="m 720.898,2078.8 -130.683,127.33 -49.852,-51.17 -18.547,18.07 120.266,123.44 18.535,-18.07 -49.844,-51.17 130.684,-127.32 -20.559,-21.11"
         style="fill:#040606;fill-opacity:1;fill-rule:nonzero;stroke:none"
         id="path16" /><path
         d="m 936.867,2252.25 -86.094,33.3 26.454,17.73 86.593,-32.97 z m -132.246,0.59 -19.25,4.65 53.164,35.64 c 15.82,10.6 25.52,22.05 29.102,34.35 3.574,12.31 1.211,24.65 -7.071,37.01 -8.281,12.37 -18.769,19.19 -31.453,20.49 -12.695,1.29 -26.953,-3.37 -42.773,-13.98 l -53.164,-35.62 2.851,19.82 z m 16.524,-78.14 -115.977,173.08 67.5,45.23 c 15.156,10.17 29.707,16.44 43.621,18.85 13.926,2.4 26.797,0.99 38.645,-4.2 11.843,-5.21 21.972,-14.07 30.359,-26.59 8.398,-12.53 12.715,-25.23 12.969,-38.07 0.246,-12.86 -3.379,-25.26 -10.887,-37.21 -7.512,-11.97 -18.859,-23.03 -34.016,-33.19 l -53.906,-36.12 3.508,18.83 42.91,-64.04 -24.726,-16.57"
         style="fill:#040606;fill-opacity:1;fill-rule:nonzero;stroke:none"
         id="path18" /><path
         d="m 1013.34,2290.02 -85.106,190.16 27.157,12.17 85.119,-190.18 -27.17,-12.15"
         style="fill:#040606;fill-opacity:1;fill-rule:nonzero;stroke:none"
         id="path20" /><path
         d="m 1165.46,2345.74 -140.49,179.09 31.14,7.98 129.29,-165.37 -17.87,-4.58 34.48,207.3 28.84,7.39 -36.84,-224.5 -28.55,-7.31"
         style="fill:#040606;fill-opacity:1;fill-rule:nonzero;stroke:none"
         id="path22" /><path
         d="m 1324.26,2374.85 -16.96,207.67 29.66,2.41 16.97,-207.66 -29.67,-2.42"
         style="fill:#040606;fill-opacity:1;fill-rule:nonzero;stroke:none"
         id="path24" /><path
         d="m 1518.31,2371.9 c -15.82,1.37 -30.17,5.24 -43.06,11.62 -12.91,6.39 -23.82,14.79 -32.79,25.23 -8.96,10.43 -15.66,22.3 -20.09,35.64 -4.43,13.32 -5.97,27.7 -4.65,43.11 1.32,15.43 5.31,29.32 11.96,41.69 6.63,12.38 15.31,22.93 26.01,31.67 10.72,8.74 22.97,15.16 36.77,19.25 13.79,4.09 28.6,5.46 44.42,4.09 16,-1.37 30.55,-5.37 43.63,-11.97 13.07,-6.6 23.9,-15.64 32.46,-27.13 l -20.88,-17.03 c -7.2,8.98 -15.57,15.92 -25.1,20.83 -9.54,4.9 -19.93,7.84 -31.2,8.81 -11.67,1 -22.66,-0.05 -32.99,-3.14 -10.32,-3.09 -19.44,-7.88 -27.37,-14.37 -7.93,-6.5 -14.34,-14.45 -19.23,-23.89 -4.9,-9.43 -7.84,-19.9 -8.83,-31.36 -0.98,-11.47 0.13,-22.27 3.34,-32.4 3.21,-10.13 8.17,-19.07 14.88,-26.82 6.7,-7.75 14.87,-14.02 24.51,-18.84 9.64,-4.82 20.29,-7.72 31.96,-8.73 11.27,-0.96 22.02,0.15 32.26,3.36 10.23,3.19 19.67,8.71 28.31,16.53 l 17.66,-20.34 c -10.41,-9.86 -22.62,-16.98 -36.64,-21.34 -14.01,-4.38 -29.13,-5.86 -45.34,-4.47"
         style="fill:#040606;fill-opacity:1;fill-rule:nonzero;stroke:none"
         id="path26" /><path
         d="m 1671.67,2401.84 15.13,20.07 111.3,-36.95 0.69,-25.32 z m -54.55,-36.77 155.2,168.01 27.96,-9.28 24.18,-227.56 -29.65,9.84 -19.55,208.47 11.29,-3.76 -140.33,-155.38 -29.1,9.66"
         style="fill:#040606;fill-opacity:1;fill-rule:nonzero;stroke:none"
         id="path28" /><path
         d="m 1973.11,2205.18 -5.53,92.14 27.13,-16.68 6.03,-92.46 z m -54.49,120.5 -3.77,19.44 54.52,-33.52 c 16.23,-9.99 30.68,-14.03 43.36,-12.16 12.68,1.87 22.92,9.14 30.71,21.82 7.8,12.67 9.64,25.05 5.54,37.12 -4.11,12.08 -14.28,23.1 -30.51,33.08 l -54.51,33.52 19.21,5.67 z m -64.17,-47.55 109.14,177.49 69.21,-42.57 c 15.55,-9.55 27.31,-20.16 35.29,-31.82 7.97,-11.67 12.05,-23.96 12.25,-36.89 0.2,-12.93 -3.65,-25.83 -11.54,-38.67 -7.9,-12.85 -17.65,-22.06 -29.22,-27.64 -11.59,-5.57 -24.37,-7.43 -38.38,-5.57 -14,1.84 -28.77,7.56 -44.32,17.12 l -55.28,33.98 18.58,4.65 -40.37,-65.67 -25.36,15.59"
         style="fill:#040606;fill-opacity:1;fill-rule:nonzero;stroke:none"
         id="path30" /><path
         d="m 2139.21,2222.24 76.88,-74.63 -17.61,-18.16 -76.9,74.64 z m -62.55,-68.29 87.14,-84.58 -18.04,-18.58 -108.49,105.31 145.11,149.5 105.5,-102.41 -18.03,-18.58 -84.16,81.68 -109.03,-112.34"
         style="fill:#040606;fill-opacity:1;fill-rule:nonzero;stroke:none"
         id="path32" /><path
         d="m 2295.03,1942.81 c -2.84,4.77 -3.63,9.85 -2.34,15.24 1.28,5.39 4.48,9.61 9.59,12.67 5.1,3.05 10.29,3.84 15.57,2.37 5.28,-1.47 9.34,-4.59 12.19,-9.36 2.95,-4.93 3.74,-9.95 2.39,-15.03 -1.34,-5.09 -4.58,-9.16 -9.68,-12.22 -5.12,-3.05 -10.27,-4 -15.47,-2.84 -5.21,1.18 -9.29,4.23 -12.25,9.17"
         style="fill:#040606;fill-opacity:1;fill-rule:nonzero;stroke:none"
         id="path34" /><path
         d="m 294.523,1750.4 203.836,-43.13 -5.058,-23.87 -195.957,-99.4 2.648,12.52 167.43,-35.43 -6.152,-29.11 -203.836,43.12 5.046,23.88 195.958,99.4 -2.645,-12.53 -167.434,35.43 6.164,29.12"
         style="fill:#040606;fill-opacity:1;fill-rule:nonzero;stroke:none"
         id="path36" /><path
         d="m 300.781,1436.06 24.16,-6.92 5.481,-117.14 -23.391,-9.73 z m -53.906,37.71 212.531,-84.53 1.367,-29.43 -203.703,-104.27 -1.453,31.22 187.539,93.09 0.555,-11.91 -195.41,75.2 -1.426,30.63"
         style="fill:#040606;fill-opacity:1;fill-rule:nonzero;stroke:none"
         id="path38" /><path
         d="m 284.113,1141.21 176.641,45.67 -17.883,69.16 25.07,6.48 43.145,-166.85 -25.078,-6.48 -17.883,69.16 -176.641,-45.67 -7.371,28.53"
         style="fill:#040606;fill-opacity:1;fill-rule:nonzero;stroke:none"
         id="path40" /><path
         d="m 384.484,871.699 c -12.851,24.18 -16.035,46.879 -9.55,68.082 6.484,21.188 23.046,38.867 49.675,53.028 l 104.602,55.591 13.973,-26.28 -103.555,-55.05 c -20.496,-10.879 -33.086,-23.359 -37.742,-37.422 -4.668,-14.039 -2.629,-29.296 6.121,-45.769 8.859,-16.649 20.402,-26.969 34.668,-30.969 14.258,-3.988 31.633,-0.539 52.129,10.36 l 103.566,55.031 13.543,-25.492 -104.609,-55.598 c -26.629,-14.16 -50.528,-18.039 -71.668,-11.633 -21.164,6.402 -38.203,21.774 -51.153,46.121"
         style="fill:#040606;fill-opacity:1;fill-rule:nonzero;stroke:none"
         id="path42" /><path
         d="m 596.594,588.121 20.234,90.07 21.434,-23.562 -19.844,-90.508 z M 577.668,719 l 1.766,19.719 43.078,-47.321 c 12.82,-14.078 25.574,-21.988 38.281,-23.707 12.703,-1.722 24.551,2.43 35.555,12.45 11.007,10.007 16.211,21.398 15.625,34.129 -0.594,12.75 -7.313,26.152 -20.137,40.25 l -43.066,47.32 20.019,0.121 z m -74.844,-27.871 154.071,140.25 54.699,-60.09 c 12.285,-13.5 20.644,-26.961 25.066,-40.367 4.426,-13.422 4.942,-26.363 1.555,-38.852 -3.399,-12.48 -10.676,-23.789 -21.828,-33.941 -11.153,-10.16 -23.067,-16.301 -35.731,-18.449 -12.676,-2.141 -25.488,-0.379 -38.418,5.281 -12.941,5.668 -25.558,15.258 -37.843,28.75 l -43.672,47.98 19.14,-0.679 -57.011,-51.891 -20.028,22.008"
         style="fill:#040606;fill-opacity:1;fill-rule:nonzero;stroke:none"
         id="path44" /><path
         d="m 750.422,523.738 19.766,15.532 98.125,-64.219 -5.821,-24.653 z m -62.149,-21.566 193.047,122.668 24.657,-16.141 -34.903,-226.168 -26.152,17.11 34.492,206.519 9.961,-6.519 -175.449,-114.262 -25.653,16.793"
         style="fill:#040606;fill-opacity:1;fill-rule:nonzero;stroke:none"
         id="path46" /><path
         d="m 962.344,343.238 71.786,195.59 27.95,-10.258 -62.869,-171.281 105.899,-38.867 -8.93,-24.301 -133.836,49.117"
         style="fill:#040606;fill-opacity:1;fill-rule:nonzero;stroke:none"
         id="path48" /><path
         d="m 1427.37,249.738 c -15.86,0.262 -30.45,3.133 -43.76,8.602 -13.31,5.469 -24.79,13.101 -34.46,22.879 -9.67,9.793 -17.17,21.179 -22.52,34.16 -5.35,12.98 -7.89,27.223 -7.63,42.691 0.24,15.481 3.25,29.61 9.02,42.418 5.76,12.801 13.68,23.953 23.76,33.403 10.08,9.461 21.85,16.718 35.33,21.757 13.48,5.043 28.15,7.43 44.02,7.172 16.07,-0.261 30.85,-3.23 44.36,-8.898 13.5,-5.684 24.93,-13.953 34.28,-24.813 l -19.65,-18.437 c -7.8,8.449 -16.63,14.797 -26.49,19.027 -9.85,4.231 -20.44,6.442 -31.74,6.61 -11.7,0.203 -22.6,-1.61 -32.68,-5.418 -10.09,-3.813 -18.86,-9.219 -26.31,-16.243 -7.46,-7.019 -13.31,-15.41 -17.53,-25.168 -4.23,-9.75 -6.43,-20.378 -6.62,-31.902 -0.18,-11.496 1.67,-22.199 5.59,-32.078 3.89,-9.891 9.47,-18.461 16.7,-25.719 7.21,-7.269 15.81,-12.961 25.77,-17.09 9.94,-4.14 20.78,-6.293 32.48,-6.48 11.32,-0.191 21.96,1.668 31.95,5.578 9.98,3.91 19.02,10.063 27.09,18.461 l 19.04,-19.051 c -9.7,-10.57 -21.39,-18.519 -35.06,-23.84 -13.7,-5.339 -28.67,-7.879 -44.94,-7.621"
         style="fill:#040606;fill-opacity:1;fill-rule:nonzero;stroke:none"
         id="path50" /><path
         d="m 1699.6,311.34 c 11.16,2.82 21.02,7.359 29.57,13.621 8.56,6.25 15.45,13.769 20.69,22.57 5.25,8.789 8.66,18.399 10.22,28.828 1.55,10.422 0.93,21.211 -1.9,32.371 -2.81,11.161 -7.39,20.95 -13.71,29.379 -6.32,8.442 -13.89,15.27 -22.68,20.532 -8.8,5.238 -18.45,8.578 -28.94,10.019 -10.5,1.442 -21.33,0.762 -32.48,-2.058 -11.36,-2.883 -21.31,-7.442 -29.85,-13.692 -8.55,-6.262 -15.5,-13.789 -20.84,-22.609 -5.34,-8.832 -8.8,-18.449 -10.36,-28.871 -1.56,-10.418 -0.93,-21.219 1.89,-32.371 2.81,-11.168 7.39,-20.95 13.72,-29.379 6.32,-8.442 13.93,-15.258 22.83,-20.481 8.88,-5.23 18.58,-8.551 29.08,-10 10.5,-1.437 21.41,-0.719 32.76,2.141 z m 6.49,-25.68 c -15.39,-3.89 -30.33,-4.898 -44.81,-3.039 -14.49,1.867 -27.72,6.238 -39.71,13.149 -11.98,6.89 -22.23,15.91 -30.78,27.07 -8.54,11.14 -14.7,24.109 -18.44,38.93 -3.75,14.808 -4.5,29.14 -2.28,43.019 2.23,13.859 6.97,26.672 14.24,38.441 7.26,11.75 16.78,21.891 28.54,30.391 11.77,8.488 25.44,14.719 41.03,18.66 15.39,3.891 30.22,4.918 44.5,3.098 14.27,-1.809 27.44,-6.16 39.52,-13.027 12.07,-6.883 22.33,-15.903 30.78,-27.063 8.45,-11.168 14.57,-24.258 18.37,-39.269 3.79,-15 4.62,-29.418 2.49,-43.258 -2.14,-13.852 -6.87,-26.66 -14.23,-38.453 -7.36,-11.789 -16.88,-21.86 -28.58,-30.239 -11.7,-8.39 -25.24,-14.519 -40.64,-18.41"
         style="fill:#040606;fill-opacity:1;fill-rule:nonzero;stroke:none"
         id="path52" /><path
         d="m 1971.4,388.719 c -13.99,-7.508 -28.5,-12.559 -43.57,-15.137 -15.06,-2.582 -28.09,-2.434 -39.1,0.43 l -1.29,25.66 c 10.28,-2.352 21.92,-2.633 34.91,-0.82 13,1.808 25.36,5.859 37.07,12.16 10.65,5.726 18.65,11.609 23.97,17.629 5.32,6.007 8.42,12.007 9.25,17.98 0.85,5.981 -0.19,11.668 -3.1,17.09 -3.39,6.289 -8.17,10.258 -14.34,11.891 -6.18,1.628 -13.18,1.867 -21,0.707 -7.82,-1.168 -16.13,-3 -24.93,-5.481 -8.81,-2.476 -17.82,-4.668 -27.04,-6.598 -9.23,-1.91 -18.1,-2.8 -26.62,-2.652 -8.53,0.141 -16.48,2.231 -23.83,6.293 -7.35,4.027 -13.66,10.938 -18.93,20.738 -5.08,9.43 -7.26,19.45 -6.55,30.102 0.69,10.617 4.96,21.129 12.77,31.539 7.81,10.391 19.75,19.91 35.83,28.559 10.67,5.73 21.99,10.019 33.98,12.863 11.99,2.848 23.23,3.719 33.75,2.609 l 2.63,-25.609 c -10.69,1 -21.04,0.34 -31.04,-2.012 -10.01,-2.332 -19.12,-5.711 -27.33,-10.121 -10.32,-5.559 -18.08,-11.418 -23.3,-17.617 -5.25,-6.192 -8.22,-12.301 -8.92,-18.313 -0.7,-6.007 0.4,-11.73 3.31,-17.14 3.48,-6.469 8.3,-10.528 14.47,-12.16 6.17,-1.637 13.16,-1.821 20.93,-0.571 7.77,1.262 16.08,3.071 24.94,5.473 8.85,2.398 17.86,4.578 27.03,6.609 9.17,2 18.03,2.93 26.56,2.782 8.52,-0.153 16.44,-2.204 23.76,-6.153 7.3,-3.961 13.54,-10.738 18.71,-20.34 4.99,-9.269 7.08,-19.238 6.29,-29.918 -0.8,-10.679 -5.19,-21.269 -13.18,-31.75 -7.99,-10.5 -20.02,-20.062 -36.09,-28.722"
         style="fill:#040606;fill-opacity:1;fill-rule:nonzero;stroke:none"
         id="path54" /><path
         d="m 2136.39,492.602 -142.59,151.918 17.79,16.691 175.9,-50.84 -9.54,-8.961 -40.49,177.949 17.8,16.7 142.81,-151.707 -20.84,-19.551 -112.04,118.929 4.99,4.692 34.62,-156.91 -9.98,-9.383 -154.85,44.082 5.42,5.09 111.83,-119.153 -20.83,-19.546"
         style="fill:#040606;fill-opacity:1;fill-rule:nonzero;stroke:none"
         id="path56" /><path
         d="m 2290.14,834.691 56.26,91.2 21.53,-13.289 -56.26,-91.192 z m 80.18,-46.32 63.76,103.348 22.04,-13.59 -79.38,-128.68 -177.32,109.391 77.19,125.14 22.04,-13.601 -61.57,-99.809 133.24,-82.199"
         style="fill:#040606;fill-opacity:1;fill-rule:nonzero;stroke:none"
         id="path58" /><path
         d="m 2518.18,1026.92 -172.57,59.22 -23.2,-67.57 -24.48,8.4 55.93,163 24.49,-8.4 -23.18,-67.56 172.58,-59.22 -9.57,-27.87"
         style="fill:#040606;fill-opacity:1;fill-rule:nonzero;stroke:none"
         id="path60" /><path
         d="m 2567.89,1214.06 -205.56,33.88 4.84,29.38 205.57,-33.91 -4.85,-29.35"
         style="fill:#040606;fill-opacity:1;fill-rule:nonzero;stroke:none"
         id="path62" /><path
         d="m 2587.75,1460.37 c 0.3,-15.88 -2.04,-30.56 -7.03,-44.05 -4.99,-13.5 -12.19,-25.25 -21.63,-35.27 -9.43,-10 -20.53,-17.92 -33.32,-23.72 -12.78,-5.82 -26.91,-8.87 -42.38,-9.18 -15.48,-0.3 -29.72,2.2 -42.72,7.49 -13,5.3 -24.42,12.81 -34.24,22.55 -9.82,9.72 -17.48,21.23 -23.01,34.52 -5.52,13.29 -8.44,27.87 -8.76,43.74 -0.31,16.06 2.13,30.95 7.31,44.65 5.19,13.69 13.04,25.41 23.56,35.14 l 19.13,-18.97 c -8.17,-8.1 -14.19,-17.15 -18.07,-27.14 -3.86,-10.01 -5.69,-20.66 -5.47,-31.97 0.24,-11.71 2.44,-22.53 6.6,-32.47 4.17,-9.94 9.9,-18.51 17.18,-25.71 7.29,-7.19 15.88,-12.74 25.78,-16.6 9.9,-3.88 20.61,-5.7 32.11,-5.48 11.52,0.23 22.13,2.47 31.88,6.74 9.74,4.26 18.1,10.13 25.1,17.62 6.99,7.48 12.38,16.27 16.15,26.36 3.77,10.09 5.54,21 5.3,32.71 -0.22,11.31 -2.46,21.88 -6.73,31.72 -4.25,9.84 -10.73,18.64 -19.42,26.41 l 18.37,19.71 c 10.9,-9.31 19.26,-20.7 25.08,-34.19 5.83,-13.47 8.89,-28.35 9.23,-44.61"
         style="fill:#040606;fill-opacity:1;fill-rule:nonzero;stroke:none"
         id="path64" /><path
         d="m 2551.47,1712.3 c 3.96,-15.37 5.4,-30.67 4.29,-45.91 -1.08,-15.24 -4.34,-27.87 -9.75,-37.87 l -25.24,4.88 c 4.76,9.41 7.8,20.65 9.14,33.7 1.36,13.06 0.37,26.01 -2.95,38.89 -3.01,11.72 -6.8,20.88 -11.38,27.5 -4.57,6.6 -9.65,11.04 -15.26,13.28 -5.59,2.25 -11.37,2.59 -17.33,1.06 -6.91,-1.78 -11.9,-5.48 -14.97,-11.08 -3.07,-5.6 -4.97,-12.34 -5.7,-20.22 -0.74,-7.87 -0.95,-16.38 -0.65,-25.52 0.31,-9.15 0.29,-18.42 -0.05,-27.83 -0.34,-9.42 -1.6,-18.24 -3.78,-26.49 -2.18,-8.24 -6.1,-15.46 -11.79,-21.63 -5.68,-6.18 -13.9,-10.65 -24.66,-13.43 -10.38,-2.67 -20.65,-2.39 -30.8,0.83 -10.15,3.22 -19.34,9.87 -27.58,19.94 -8.22,10.06 -14.62,23.95 -19.18,41.62 -3.02,11.72 -4.47,23.74 -4.37,36.07 0.1,12.32 1.95,23.44 5.53,33.39 l 25.51,-3.57 c -3.54,-10.13 -5.36,-20.34 -5.48,-30.61 -0.12,-10.28 0.99,-19.93 3.31,-28.96 2.92,-11.35 6.77,-20.29 11.53,-26.85 4.76,-6.56 9.98,-10.9 15.65,-13.02 5.67,-2.13 11.49,-2.42 17.44,-0.89 7.12,1.83 12.21,5.56 15.26,11.16 3.07,5.6 4.93,12.33 5.56,20.18 0.65,7.85 0.86,16.35 0.65,25.52 -0.22,9.17 -0.2,18.45 0.04,27.84 0.25,9.38 1.46,18.19 3.64,26.44 2.18,8.25 6.06,15.44 11.65,21.6 5.58,6.15 13.67,10.59 24.23,13.31 10.18,2.63 20.37,2.28 30.54,-1.04 10.19,-3.32 19.42,-10.11 27.69,-20.38 8.28,-10.26 14.7,-24.23 19.26,-41.91"
         style="fill:#040606;fill-opacity:1;fill-rule:nonzero;stroke:none"
         id="path66" /><path
         d="m 1873.98,1978.63 c 0,0 20.35,-130.46 22.94,-153.84 -58.73,68.71 -176.55,131.17 -387.87,131.17 h -34.62 v -735.01 c 0,-211.33 25.47,-336.098 65.61,-364.919 -15.24,0 -166.16,0 -179.83,0 -13.65,0 -50.36,0 -65.59,0 40.12,28.821 65.59,153.589 65.59,364.919 v 735.01 h -34.6 c -211.33,0 -329.153,-62.46 -387.883,-131.17 2.597,23.38 22.949,153.84 22.949,153.84 h 913.304"
         style="fill:#040606;fill-opacity:1;fill-rule:nonzero;stroke:none"
         id="path68" /></g></g></svg>
