<?xml version="1.0" encoding="UTF-8" standalone="no"?>
<!-- Created with Inkscape (http://www.inkscape.org/) -->

<svg
   version="1.1"
   id="svg2"
   xml:space="preserve"
   width="566.93335"
   height="377.94666"
   viewBox="0 0 566.93335 377.94666"
   sodipodi:docname="TriviCare_byn Vertical Positivo.eps"
   xmlns:inkscape="http://www.inkscape.org/namespaces/inkscape"
   xmlns:sodipodi="http://sodipodi.sourceforge.net/DTD/sodipodi-0.dtd"
   xmlns="http://www.w3.org/2000/svg"
   xmlns:svg="http://www.w3.org/2000/svg"><defs
     id="defs6" /><sodipodi:namedview
     id="namedview4"
     pagecolor="#ffffff"
     bordercolor="#666666"
     borderopacity="1.0"
     inkscape:pageshadow="2"
     inkscape:pageopacity="0.0"
     inkscape:pagecheckerboard="0" /><g
     id="g8"
     inkscape:groupmode="layer"
     inkscape:label="ink_ext_XXXXXX"
     transform="matrix(1.3333333,0,0,-1.3333333,0,377.94667)"><g
       id="g10"
       transform="scale(0.1)"><path
         d="m 2043.73,2559.92 c 0,0 20.94,-134.24 23.6,-158.31 -60.42,70.71 -181.65,134.98 -399.09,134.98 h -35.63 v -756.28 c 0,-217.44 26.21,-345.85 67.5,-375.5 -15.67,0 -170.96,0 -185.04,0 -14.04,0 -51.8,0 -67.48,0 41.28,29.65 67.48,158.06 67.48,375.5 v 756.28 h -35.6 c -217.44,0 -338.68,-64.27 -399.1,-134.98 2.66,24.07 23.6,158.31 23.6,158.31 h 939.76"
         style="fill:#040606;fill-opacity:1;fill-rule:nonzero;stroke:none"
         id="path12" /><path
         d="m 2707.88,1404.81 c -15.66,0 -170.88,0 -184.97,0 v 0.56 l -0.19,-0.56 c -14.04,0 -51.83,0 -67.5,0 103.96,96.39 81.19,487.34 0,552.45 15.67,0 53.46,0 67.5,0 l 0.19,-0.57 v 0.57 h 117.52 v -193.07 c 1.26,-207.66 27.18,-330.47 67.45,-359.38 z m -115.95,704.74 c -202.66,184.74 -469.99,-19.99 -469.99,-240.85 v -104.49 c 1.27,-207.67 27.18,-330.49 67.44,-359.4 -15.65,0 -170.88,0 -184.97,0 v 0.56 l -0.19,-0.56 c -14.04,0 -51.82,0 -67.5,0 41.29,29.65 67.5,158.06 67.5,375.49 l 0.19,-1.07 v 103.87 c 0,217.44 -26.4,345.83 -67.69,375.5 15.68,0 53.46,0 67.5,0 l 0.19,-0.59 v 0.59 h 117.53 v -273.26 c 60.33,177.01 257.58,306.57 523.04,306.57 l -53.05,-182.36"
         style="fill:#040606;fill-opacity:1;fill-rule:nonzero;stroke:none"
         id="path14" /><path
         d="m 3854.38,1404.81 c -15.64,0 -170.88,0 -184.97,0 v 0.57 l -0.18,-0.57 c -14.04,0 -51.82,0 -67.5,0 41.29,29.65 67.5,158.06 67.5,375.5 l 0.18,-1.08 v 104.95 l -0.18,-1.07 c 0,217.42 -26.21,345.82 -67.5,375.48 15.67,0 53.46,0 67.5,0 l 0.18,-0.57 v 0.57 h 117.53 v -494.4 c 1.26,-207.67 27.19,-330.47 67.44,-359.38 z m -420.63,779.63 -287.67,-753.38 -9.94,-26.25 h -23.43 l -181.32,478.38 c -75.92,200.27 -135.61,321.38 -209.78,375.4 15.67,0 170.97,0 185.04,0 14.04,0 51.81,0 67.49,0 -41.29,-29.66 11.34,-208.03 74.81,-375.48 l 122.58,-323.4 0.17,-0.43 250.93,657.38 c 130.31,341.27 212.42,376.57 385.58,376.57 l -63.44,-218.05 c -131.3,131.31 -201.31,101.16 -311.02,-190.74"
         style="fill:#040606;fill-opacity:1;fill-rule:nonzero;stroke:none"
         id="path16" /><path
         d="m 941.012,241.422 c -300.129,0 -543.418,289.738 -543.418,647.168 0,357.42 243.289,647.18 543.418,647.18 169.818,0 178.778,-35.31 324.908,-35.31 v -246.39 c -71.3,153.43 -187.21,257 -324.908,257 -231.36,0 -401.262,-292.33 -401.262,-622.48 0,-330.149 169.902,-622.488 401.262,-622.488 167.678,0 309.648,90.148 402.458,226.859 l 19.78,-11.801 C 1263.62,334.891 1111.49,241.422 941.012,241.422"
         style="fill:#040606;fill-opacity:1;fill-rule:nonzero;stroke:none"
         id="path18" /><path
         d="m 2073.18,367.148 c -16.76,36.723 -21.32,81.301 -21.32,127.133 0,46.149 0,456.789 0,456.789 -215.99,-82.59 -477.39,-227.672 -477.39,-466.601 0,-126.891 84.43,-214.231 196.35,-214.231 86.21,0 192.19,32.032 302.36,96.91 z m 962.08,830.722 -48.83,-69.27 c -31.89,19.11 -68.85,28.07 -105.78,28.07 -187.66,0 -292.86,-154.51 -292.86,-388.479 V 657.469 c 1.32,-220.02 28.79,-350.117 71.44,-380.77 -16.58,0 -181.04,0 -195.95,0 v 0.633 l -0.21,-0.633 c -14.88,0 -54.9,0 -71.51,0 43.75,31.422 71.51,167.449 71.51,397.821 l 0.21,-1.141 v 29.031 c -82.65,-119.551 -176.8,-217.211 -275.16,-291.371 9.65,-67.039 27.25,-109.949 59.67,-134.34 -84.41,0 -133.41,26.371 -161.31,66.821 C 1970.13,276.328 1851.5,241.422 1742,241.422 c -193.01,0 -322.01,109.008 -322.01,243.047 0,284.351 373.26,418.172 631.87,492.09 v 2.062 c 0,154.139 -70.47,213.209 -170.13,213.209 -0.17,0 -0.36,-0.01 -0.52,-0.01 v 0.01 c -90.26,0 -171.16,-44.51 -236.25,-118.37 l -88.43,107.37 -0.25,0.39 c 146.15,0 198.46,35.32 324.93,35.32 232.93,0 295.18,-110.6 295.18,-237.919 V 650.66 c 0.71,-84.269 2.43,-152.699 7.89,-207.57 97.23,75.98 193.69,177.269 279,304.48 v 35.86 c 0,230.34 -27.97,366.38 -71.72,397.8 16.61,0 56.63,0 71.51,0 l 0.21,-0.6 v 0.6 h 124.51 v -230 c 47,156.37 157.82,265.31 321.69,265.31 49.21,0 90.78,-6.77 125.78,-18.67"
         style="fill:#040606;fill-opacity:1;fill-rule:nonzero;stroke:none"
         id="path20" /><path
         d="m 3167.3,938.641 h 485.99 c -1.44,133.419 -75.42,253.189 -211.4,253.189 -119.86,0 -223.7,-102.94 -274.59,-253.189 z m 687.08,-435.36 C 3776.29,377.25 3621.14,241.422 3441.89,241.422 c -256.95,0 -465.26,218.277 -465.26,487.547 0,269.261 208.29,487.541 465.24,487.571 h 0.02 c 211.17,0 343.65,-147.24 351.94,-302.61 h -141.09 c 0,0 0,0 0,0.019 h -493.18 c -16.46,-56.66 -25.6,-119.211 -25.6,-184.98 0,-255.641 137.86,-462.867 307.93,-462.867 161.49,0 302.23,104.886 392.75,247.41 l 19.74,-10.231"
         style="fill:#040606;fill-opacity:1;fill-rule:nonzero;stroke:none"
         id="path22" /></g></g></svg>
